<?xml version="1.0" encoding="UTF-8"?>
<svg version="1.1" viewBox="0 0 2000 2000" width="500" height="500" xmlns="http://www.w3.org/2000/svg">
<path transform="translate(823,585)" d="m0 0h19l19 3 20 6 18 8 18 11 16 12 14 12 13 12 8 8 7 8 8 9 14 19v2h3l2-5 9-11 8-10 11-13 20-20 14-11 12-9 21-13 21-10 15-5 18-3h21l12 2 12 5 13 9 8 8 7 11 5 11 4 18 1 9v23l-4 25-7 26-9 25-11 24-8 16-11 21-14 23-16 24-11 16-13 18-12 16-9 11-13 16-12 14-9 11-9 10-12 14-28 30-9 9-7 8-5 5h-2l-2 4-4 1-11-12-18-18-7-8-16-17-9-10-10-11-9-11-10-11-11-14-11-13-9-12-16-21-6-9-13-19-13-20-14-23-10-18-8-16-11-24-11-30-6-22-4-24-1-11v-12l2-19 4-14 8-16 12-13 14-9 14-5z" fill="#E3747C"/>
<path transform="translate(614,891)" d="m0 0 6 1 22 12 17 10 28 16 17 10 28 16 24 14 56 32 13 8 17 10 17 12 14 11 13 12 17 17 11 14 13 18 9 15 12 23 11 29 8 31 4 26 1 13v38l-2 18-3 5-9-1-43-11-181-48-171-46-74-20-12-4-166-166-3-4 1-5 4-3 17-2h13l19 3 16 5 15 8 14 11 13 13 11 14 22 22 14 11 21 14 19 11 19 8 27 8 20 4 17 2 17 1h25l17-2 24-5 10-5 11-9 5-4 9-13 5-10 4-15 1-13-2-17-5-16-7-11-9-9-13-8-17-8-25-11-12-8-6-5-6-8-5-10-3-11-1-18 2-12 4-7z" fill="#103C85"/>
<path transform="translate(1379,891)" d="m0 0 6 1 3 6 2 9v15l-2 12-4 11-7 11-9 8-14 8-22 10-16 7-14 9-9 8-7 11-4 10-2 8v28l4 15 8 16 11 12 11 9 11 5 29 6 11 1h27l25-2 18-3 24-6 20-7 19-9 21-13 14-10 13-11 10-9 11-11 11-14 9-10 11-10 11-7 13-6 13-4 10-2 10-1h13l16 2 5 3v6l-2 3h-2v2h-2l-2 4-160 160-16 5-216 58-79 21-162 43-13 3h-5l-3-8-2-22v-25l1-17 6-36 8-28 11-27 13-25 15-22 11-14 9-11 19-19 11-9 17-13 45-27 26-15 23-13 24-14 28-16 78-45z" fill="#103C85"/>
<path transform="translate(1368,1393)" d="m0 0 57 1 10 19 8 15 8 16 10 19 5 10v-66l-3-8-5-6h59v2l-5 4-3 6v123l2 7 5 2v2l-4 1h-52l-12-22-15-29-9-17-4-8-1-3h-2l1 2 1 63 2 7 5 4-1 3h-55v-3l5-5 1-4v-123l-3-6z" fill="#5884BC"/>
<path transform="translate(1531,1393)" d="m0 0 93 1 14 3 9 4 6 4 7 6 7 11 5 12 3 13 1 11v15l-2 18-3 12-7 14-9 10-9 6-10 4-9 2-14 1h-79l-2-2 5-4 2-5v-124l-3-6zm50 32v83h31l9-3 8-7 4-10 2-10v-23l-2-10-6-12-8-6-10-2z" fill="#5884BC"/>
<path transform="translate(789,1393)" d="m0 0 90 1 14 3 12 6 7 8 5 10 2 8 1 9v11l-2 14-4 11-9 10-7 4h-2l11 26 7 12 7 8 5 3v3h-50l-3-3-13-27-13-29-8-16v61l2 7 6 5-2 2h-55v-3l5-5 1-5v-123l-3-5-4-4zm49 32v37h28l7-3 4-4 2-6v-12l-4-8-5-3-6-1z" fill="#5884BC"/>
<path transform="translate(325,1393)" d="m0 0h59l-5 5-3 5-1 7-1 41h49l-1-44-3-8-5-6h59v2l-5 4-3 6v124l4 6 3 2v2l-2 1h-55v-3l5-4 2-8 1-43-38 1h-10v44l3 7 5 5-1 1h-55l-2-1v-2l4-3h2l1-5v-125l-3-5-4-4z" fill="#5884BC"/>
<path transform="translate(1208,1393)" d="m0 0h59l-5 5-3 5-1 5v83l3 10 6 5 9 3h13l9-4 5-6 2-7v-86l-3-7-5-4v-2h60l-5 5-4 6-1 83-1 14-4 13-7 10-9 8-11 5-16 4-9 1h-19l-18-3-12-5-9-6-8-9-5-11-2-7-1-15-1-82-4-6-3-3z" fill="#5884BC"/>
<path transform="translate(672,1394)" d="m0 0h62l3 9 16 66 13 52 4 10 7 6-1 3h-58v-3l5-4v-10l-3-17h-34l-3 19 1 9 5 3v2l-6 1h-52l-1-2 7-8 6-18 25-103zm29 31-3 19-6 30 1 1h20l-1-12-8-36-1-2z" fill="#5884BC"/>
<path transform="translate(488,1393)" d="m0 0 123 1 1 2v40l-2 1-4-7v-2l-4-2-7-2h-57v28l42-1 8-7h1v46l-5-5-3-2-5-1h-38v28l67-1 7-3 4-5 2-4h1v42l-1 1h-128l-2-2 6-5 1-2 1-10v-113l-3-8z" fill="#5884BC"/>
<path transform="translate(1069,1393)" d="m0 0 126 1v45l-4-5-5-5-4-2-6-1-58-1v36l45-1 4-2 5-5v48l-5-5-3-2-5-1-41-1 1 35 2 7 6 4-1 2h-57v-3l5-3 2-5v-125l-4-6-3-3z" fill="#5884BC"/>
<path transform="translate(1605,876)" d="m0 0h7l2 1v9l-12 54-9 32-8 22-9 17-13 17-9 10-7 8-13 13-18 13-19 12-6 1-3-4 1-7 10-16 8-14 8-16 8-22 7-28 6-32 6-15 9-16 9-11 11-10 15-10 15-7z" fill="#113D85"/>
<path transform="translate(385,876)" d="m0 0h7l16 6 10 6 13 10 10 10 7 10 7 12 7 19 6 33 6 24 8 21 8 16 10 18 9 14 1 6-3 4-7-1-22-14-13-10-25-25-11-14-11-15-7-15-11-33-9-38-7-32v-11z" fill="#113D85"/>
<path transform="translate(934,1394)" d="m0 0h126v43h-3l-4-6-6-4-6-1h-23v97l2 11 6 4-1 2h-57l1-4 5-2 1-4 1-105-22 1-12 3-6 8-1 2h-2z" fill="#5884BC"/>
<path transform="translate(569,923)" d="m0 0 6 2 7 8 8 13 6 13 5 17 2 12v18l-3 17-6 18-6 16-6 23-3 16-2 10-3 3h-9l-5-5-8-25-5-22-2-13-1-12v-19l2-18 6-26 10-35 4-9z" fill="#113D86"/>
<path transform="translate(1425,923)" d="m0 0 5 1 3 3 6 19 9 33 4 23 1 8v30l-4 25-11 39-3 4-4 1h-7l-3-2-5-25-4-17-8-24-6-17-3-15v-25l4-18 6-16 8-14 10-12z" fill="#113D85"/>
<path transform="translate(1517,880)" d="m0 0 6 1 2 10-1 25-3 26-5 32-5 21-8 23-11 23-13 21-5 5-5-1-3-3v-11l2-17v-37l-2-18v-22l4-18 6-15 5-10 10-13 11-11 13-10z" fill="#113D85"/>
<path transform="translate(476,880)" d="m0 0 6 1 13 10 10 9 9 11 9 17 6 18 2 12v24l-2 23v20l2 25 1 12-5 5-4-1-5-5-11-18-8-16-8-18-5-15-5-22-7-46-1-11v-31z" fill="#113D86"/>
<path transform="translate(1205,370)" d="m0 0 7 1 10 5 6 40v3h2l3-10 8-22 2-2 5 1 8 3-1 5-15 36-6 16-4 1-12-5-2-3-6-41-5 11-8 21-4 2-10-4 1-6 8-18 9-24z" fill="#5884BC"/>
<path transform="translate(843,355)" d="m0 0 4 1 13 45 4 11v3l-12 4-7-1-13-13-8-7-8-8-2-1 12 36-3 3-6 2-5-1-18-57v-2l13-4 5 1 12 11 8 7 10 10h1l-9-29-1-8z" fill="#5783BB"/>
<path transform="translate(899,343)" d="m0 0h11l8 3 7 7 5 12 1 6v12l-4 11-6 7-10 5-21 4h-8l-1-1-6-36-4-21 1-4zm-5 13-5 2 1 14 4 22 1 2h8l8-3 4-6v-11l-3-12-3-5-3-3z" fill="#5884BC"/>
<path transform="translate(1059,338)" d="m0 0 13 1 3 1-2 14-2 11 14 1 8 1 2-10 2-14 10 1 6 2-3 22-5 35-1 4-11-1-4-1 1-10 3-15-15-1-9-1-3 24-10-1-5-1 1-12 5-40 1-9z" fill="#5884BC"/>
<path transform="translate(706,410)" d="m0 0 3 1 9 17 14 23 7 11-2 4-9 5h-3l-10-19-5 1-15 9 2 5 7 12 2 5-10 7-4-1-11-19-12-19-8-13v-2l12-7h2l10 18 1 3 11-6 9-6-12-21 10-7z" fill="#5884BC"/>
<path transform="translate(1429,1601)" d="m0 0h14l4 2 14 25 5 8 1-34 12-1 1 1v57l-2 1h-11l-5-3-15-26-4-6-1 34-1 1h-10l-2-2z" fill="#5884BC"/>
<path transform="translate(1091,1601)" d="m0 0h14l4 4 13 23 5 8 1-34 12-1 1 1v57l-5 1-11-1-6-9-14-24v-2h-2v35l-1 1h-10l-2-3v-55z" fill="#5783BB"/>
<path transform="translate(1159,1601)" d="m0 0h30l10 3 7 8 3 7 1 13-2 10-4 8-8 7-9 3h-28l-1-5v-52zm17 11-3 1-1 17v16l2 3h13l5-4 2-7v-14l-2-7-5-4z" fill="#5884BC"/>
<path transform="translate(1413,496)" d="m0 0 4 1 8 7 3 3-1 7-16 32-11 20-4-2-8-8 2-4 4-7-12-12-5-1-6 5-5-1-8-8 4-4 19-10 21-12zm-3 16-19 11 1 4 7 6 3-1 10-18v-2z" fill="#5884BC"/>
<path transform="translate(757,385)" d="m0 0 4 1 36 42 4 5-1 3-9 4h-5l-4-6v-2l-6 1-15 7 2 7v5l-11 6h-3l-7-60v-5zm-1 17 1 13 2 12 12-4-1-4-7-10-6-7z" fill="#5884BC"/>
<path transform="translate(611,476)" d="m0 0 5 1 16 10 21 14 11 7 2 4-10 9-5-2-5-5-5 3-10 9h-2l4 8 2 5-9 8-4-1-24-57 2-4zm3 17 7 17 2 5 4-1 7-7v-2l-17-12z" fill="#5884BC"/>
<path transform="translate(700,1601)" d="m0 0h27l8 2 6 5 2 4v13l-4 7-5 6 11 15 1 6-14 1-6-9-4-7v-2l-7-1-1 18-14 1-1-39v-19zm14 11v18h8l5-3 1-2v-9l-4-4z" fill="#5783BB"/>
<path transform="translate(1151,354)" d="m0 0 8 1 9 2 2 2 1 32v32l-8-1-7-2v-13l-15-4h-5l-5 9-9-1-6-2 4-8 12-18 15-24 2-4zm5 16-4 5-9 14v2l10 3h3l1-6v-18z" fill="#5783BB"/>
<path transform="translate(1382,1601)" d="m0 0h17l8 4 6 7 3 8v19l-4 10-6 7-5 3-4 1h-18l-6-3-7-8-4-10v-15l4-12 8-8zm3 11-6 5-2 8v12l3 9 6 4h7l5-3 2-3 1-5v-15l-3-9-5-3z" fill="#5884BC"/>
<path transform="translate(979,1601)" d="m0 0h17l8 4 6 7 3 8 1 5v8l-2 10-3 6-5 6-10 5h-18l-6-3-7-8-3-6-1-6v-11l4-13 7-8 5-3zm3 11-6 5-2 8v11l2 9 5 4 2 1h7l6-4 2-7v-15l-3-9-5-3z" fill="#5884BC"/>
<path transform="translate(1281,409)" d="m0 0h9l11 3 10 6 8 7-3 5-6 7-5-4-4-5-6-4-3-1h-7l-6 4-7 11-2 6v8l4 5 6 3 4-1 5-10 10 3 4 2-8 16-4 6-11-2-12-5-10-9-4-7-1-5v-7l4-12 7-10 8-7z" fill="#5884BC"/>
<path transform="translate(571,1601)" d="m0 0h13l2 1v22l21 1v-23l3-1h11l1 1-1 57-1 1h-12l-1-1v-13l1-9-23-1v23l-5 1-9-1z" fill="#5884BC"/>
<path transform="translate(1336,436)" d="m0 0 5 1 17 12 12 8 2 4-6 8-6-2-12-9-3-2h-3l-4 8v2l13 8 2 4-6 8-5-2-11-7-4-1-4 10 20 14-2 4-4 6-4-1-19-13-12-9 2-4 10-13 15-23z" fill="#5884BC"/>
<path transform="translate(557,525)" d="m0 0 4 2 5 6-2 4-13 14-1 3 7 6 4-2 11-12 3 1 5 5-1 6-5 6h-2l-2 4v4l6 5 4-2 11-12 4-4 8 7-1 4-9 10-7 8-8 10-5-2-11-11-11-9-14-12-7-5 1-4 12-14 9-11z" fill="#5884BC"/>
<path transform="translate(1549,674)" d="m0 0 3 1 14 30 2 5v4l-11 3-5-10-5-11v-2l-10 4 1 6 5 11-1 4-10 3-5-10-3-7-5 1-7 2 8 18 2 4v4l-7 3-5-1-16-34 1-3 19-8z" fill="#5884BC"/>
<path transform="translate(458,667)" d="m0 0 5 1 8 5-1 4-5 5-5 7-1 3v7l3 5 9 6 9 3h8l5-3 3-6v-5l-11-5 1-5 3-8 6 1 16 8 1 5-3 12-6 12-7 7-9 4h-10l-10-3-9-5-6-5-5-8-2-7v-9l3-10 6-11z" fill="#5884BC"/>
<path transform="translate(1026,1601)" d="m0 0h13l2 1v41l1 4 11 1 5-3 1-2v-41l4-1h10l1 1v39l-2 9-6 7-8 3h-17l-7-3-5-5-3-7z" fill="#5783BB"/>
<path transform="translate(518,571)" d="m0 0 4 4 27 36 8 11-1 5-7 10-1 2-9-2-53-18v-3l7-11 5 1 14 6 24 9 4 2-7-10-12-16-11-13 1-4z" fill="#5884BC"/>
<path transform="translate(1246,1601)" d="m0 0h6l3 5 13 46 1 7-1 1h-8l-5-1-1-11h-15l-6 1-2 10h-14l1-5 9-29 7-22 1-1zm-3 15-3 8-4 13h13l-1-11-3-10z" fill="#5884BC"/>
<path transform="translate(653,1601)" d="m0 0h16l2 1 15 53-1 5-13-1-1-11h-22l-1 11-12 1-2-1 3-11 10-33 4-12zm7 14-6 19v3h13l-4-20z" fill="#5884BC"/>
<path transform="translate(1014,335)" d="m0 0h18l7 2v7l-2 7-2 1-6-3-10-1-5 3-3 4-2 10 1 11 4 7 4 2h12l8-1-1 8-2 6-3 1h-18l-11-4-7-8-4-12v-14l4-13 7-8 8-4z" fill="#5884BC"/>
<path transform="translate(1522,627)" d="m0 0h3l9 16 10 17-3 3-9 3-8-14-2-4-5 1-6 3h-2l5 10 4 7v2l-9 4-4-1-6-12v-2l-7 3-13 8-4-2-5-9 1-4 16-8 23-14z" fill="#5884BC"/>
<path transform="translate(535,1601)" d="m0 0h19l4 1v10l-1 3-7-1-8-1-7 3-3 5-1 12 2 8 5 6 9 1 10-3 1 5-2 8-4 2h-18l-8-3-7-8-3-7-1-5v-12l3-10 4-6 7-6z" fill="#5884BC"/>
<path transform="translate(917,1601)" d="m0 0h36l1 3-1 9h-21v13h16l1 1v9l-1 2h-17v21l-1 1h-13l-1-4v-53z" fill="#5884BC"/>
<path transform="translate(836,1601)" d="m0 0h15l4 9 6 15 3-3 7-15 2-5 5-1h10l-1 5-10 19-8 16v18h-15v-17l-9-21-8-16z" fill="#5884BC"/>
<path transform="translate(1467,552)" d="m0 0 4 1 7 9-1 4-13 10-14 11-9 7 2 4 9 11-1 4-7 5-4-2-11-13-8-11v-3l12-8 10-9 14-11z" fill="#5884BC"/>
<path transform="translate(788,1601)" d="m0 0h41l1 1v10l-1 1h-13l-1 46-1 1h-12l-1-1v-46h-14l-1-1v-9z" fill="#5884BC"/>
<path transform="translate(1282,1601)" d="m0 0h39l1 1v9l-4 2h-10l-1 46-1 1h-11l-2-1v-46h-14l-1-1v-9z" fill="#5884BC"/>
<path transform="translate(441,775)" d="m0 0h9l8 3 4 5 2 4v14l-4 6-5 4-3 1h-14l-7-4-3-4-1-4v-13l3-6 4-4z" fill="#113D86"/>
<path transform="translate(1550,775)" d="m0 0h9l8 3 4 5 2 5v12l-3 6-6 5-4 1h-13l-7-4-4-7v-14l3-6 5-4z" fill="#113D86"/>
<path transform="translate(1501,593)" d="m0 0h2l6 10 1 4-27 18-16 11-7 5-3-1-7-10v-2l17-11 18-13z" fill="#5884BC"/>
<path transform="translate(475,634)" d="m0 0 5 1 16 10 24 14 9 5 1 2-7 13-4-2-29-17-22-12 2-5z" fill="#5884BC"/>
<path transform="translate(758,1601)" d="m0 0h14l1 1v57l-4 1h-9l-2-3z" fill="#5884BC"/>
<path transform="translate(1335,1601)" d="m0 0h14v58l-10 1-5-1v-57z" fill="#5884BC"/>
<path transform="translate(953,386)" d="m0 0h5l3 4 1 6-4 9-5 6-6 1-2-1 2-6 2-7-3-5v-4z" fill="#5783BB"/>
<path transform="translate(521,1091)" d="m0 0h2l1 5-4-1z" fill="#1E4A90"/>
<path transform="translate(1474,1092)" d="m0 0 4 1-2 2h-3z" fill="#234F94"/>
</svg>
